# xmcd
#
# Track frame offsets:
# 150
# 16048
# 29603
# 44293
# 61245
# 80695
# 93952
# 113728
# 130024
# 145411
# 159201
# 181522
#
# Disc length: 2653 seconds
#
#
# Revision: 0
# Processed by: cddbd v1.5PL3 Copyright (c) Steve Scherf et al.
# Submitted via: FreeRIP 2.53 
#
DISCID=8b0a5b0c
DTITLE=Judds, The - Number One Hits
DYEAR=1900
DGENRE=Country
TTITLE0=Why Not Me
TTITLE1=Rockin With The Rhythm Of The Rain
TTITLE2=Mama He's Crazy
TTITLE3=Turn It Loose
TTITLE4=Grampa (Tell Me Bout The Good Old Days)
TTITLE5=A Girls Night Out
TTITLE6=Love Is Alive
TTITLE7=Change Of Heart
TTITLE8=Have Mercy
TTITLE9=Let Me Tell You About Love
TTITLE10=Young Love
TTITLE11=I Know Where Im Going
EXTD=
EXTT0=
EXTT1=
EXTT2=
EXTT3=
EXTT4=
EXTT5=
EXTT6=
EXTT7=
EXTT8=
EXTT9=
EXTT10=
EXTT11=
PLAYORDER=
